<?xml version="1.0" encoding="utf-8"?>
<svg width="742" height="742" viewBox="0 0 742 742" fill="none" xmlns="http://www.w3.org/2000/svg">
  <defs>
    <linearGradient id="gradient_1" gradientUnits="userSpaceOnUse" x1="96" y1="27.36" x2="4" y2="148.36">
      <stop offset="0" stop-color="#FF5D05" />
      <stop offset="1" stop-color="#FFBC05" />
    </linearGradient>
  </defs>
  <g>
    <path d="M160 0L582 0C670.378 0 742 71.6224 742 160L742 582C742 670.378 670.378 742 582 742L160 742C71.6224 742 0 670.378 0 582L0 160C0 71.6224 71.6224 0 160 0L160 0Z" fill="#000000" />
    <path d="M7.16261 300.417L193.76 48.2947Q194.237 47.6502 194.796 47.0754Q195.355 46.5007 195.986 46.0062Q196.618 45.5117 197.31 45.1064Q198.002 44.7011 198.742 44.3923L296.233 3.71068Q296.407 3.63814 296.585 3.57685Q296.763 3.51555 296.944 3.46574Q297.126 3.41593 297.311 3.37781Q297.495 3.33969 297.682 3.31342Q297.868 3.28715 298.056 3.27283Q298.244 3.25851 298.432 3.2562Q298.62 3.25389 298.808 3.2636Q298.997 3.27331 299.184 3.29501Q299.371 3.3167 299.556 3.35028Q299.741 3.38387 299.924 3.42921Q300.107 3.47455 300.287 3.53146Q300.466 3.58837 300.642 3.65663Q300.817 3.72488 300.988 3.80419Q301.159 3.8835 301.324 3.97355Q301.49 4.0636 301.649 4.16402Q301.808 4.26444 301.961 4.37483Q302.114 4.48521 302.259 4.6051Q302.404 4.725 302.542 4.85392Q302.679 4.98283 302.808 5.12025Q302.937 5.25767 303.056 5.40302Q303.176 5.54838 303.286 5.70108Q303.397 5.85378 303.497 6.0132Q303.597 6.17263 303.687 6.33813Q303.777 6.50363 303.856 6.67453Q303.935 6.84542 304.004 7.02103Q304.072 7.19663 304.128 7.37622Q304.185 7.55581 304.23 7.73866Q304.276 7.9215 304.309 8.10686Q304.343 8.29222 304.364 8.47934Q304.386 8.66645 304.395 8.85456Q304.405 9.04267 304.402 9.231Q304.4 9.41934 304.385 9.60713L296.086 117.374Q296.022 118.2 295.844 119.01Q295.667 119.819 295.378 120.597Q295.09 121.374 294.697 122.103Q294.304 122.833 293.813 123.501L109.485 374.579Q109.313 374.814 109.13 375.039Q108.947 375.265 108.753 375.481Q108.559 375.697 108.355 375.904Q108.15 376.111 107.936 376.307Q107.722 376.504 107.498 376.689Q107.275 376.875 107.043 377.05Q106.81 377.224 106.57 377.387Q106.329 377.55 106.081 377.701Q105.833 377.853 105.577 377.991Q105.322 378.13 105.06 378.256Q104.799 378.383 104.531 378.496Q104.263 378.609 103.99 378.709Q103.718 378.809 103.44 378.896Q103.163 378.982 102.882 379.055Q102.6 379.128 102.316 379.187Q102.031 379.246 101.744 379.292Q101.457 379.337 101.168 379.368Q100.879 379.399 100.589 379.416Q100.299 379.433 100.008 379.436Q99.7177 379.439 99.4273 379.427Q99.1369 379.416 98.8475 379.39Q98.558 379.365 98.2701 379.325Q97.9822 379.285 97.6966 379.232Q97.411 379.178 97.1284 379.11Q96.8457 379.043 96.5667 378.962Q96.2877 378.88 96.013 378.786Q95.7383 378.691 95.4685 378.583Q95.1987 378.475 94.9346 378.353Q94.6704 378.232 94.4125 378.098Q94.1546 377.965 93.9035 377.818Q93.6524 377.672 93.4088 377.514Q93.1651 377.355 92.9295 377.185L9.76189 317.142Q9.52328 316.97 9.29348 316.786Q9.06368 316.602 8.84325 316.407Q8.62282 316.212 8.4123 316.007Q8.20178 315.801 8.00169 315.585Q7.80159 315.369 7.61241 315.144Q7.42323 314.918 7.24542 314.684Q7.06761 314.449 6.90161 314.206Q6.73562 313.963 6.58184 313.712Q6.42806 313.462 6.28687 313.203Q6.14568 312.945 6.01743 312.68Q5.88918 312.415 5.77418 312.144Q5.65918 311.874 5.55772 311.597Q5.45625 311.321 5.36857 311.04Q5.28088 310.759 5.20719 310.474Q5.13351 310.189 5.07399 309.901Q5.01448 309.613 4.96928 309.322Q4.92409 309.031 4.89333 308.739Q4.86257 308.446 4.84631 308.152Q4.83006 307.858 4.82835 307.564Q4.82664 307.27 4.83949 306.976Q4.85233 306.682 4.87969 306.389Q4.90705 306.096 4.94887 305.804Q4.99068 305.513 5.04685 305.224Q5.10301 304.935 5.17339 304.65Q5.24377 304.364 5.32818 304.082Q5.4126 303.8 5.51085 303.523Q5.60911 303.245 5.72095 302.973Q5.8328 302.701 5.95797 302.434Q6.08313 302.168 6.22131 301.908Q6.35949 301.648 6.51035 301.396Q6.66121 301.143 6.82438 300.898Q6.98754 300.653 7.16261 300.417Z" fill="#FFFFFF" fill-rule="evenodd" transform="translate(229.5 142.406)" />
    <path d="M59.0763 0L140.849 59.8937C140.849 59.8937 137.375 130.544 72.2147 137.895C72.2147 137.895 82.5734 127.558 84 112.36C84 112.36 38.6173 147.251 0 150.36C30.891 117.451 16.6823 82.6844 28 68.3603C28 68.3603 14.015 71.5773 5.32202 88.4976C5.32202 88.4976 -9.26953 28.725 59.0763 0Z" fill="url(#gradient_1)" fill-rule="evenodd" transform="translate(176 464.64)" />
    <path d="M29.6298 0C29.6298 0 -5.05444 16.5002 0.629364 46.8889C0.629364 46.8889 7.21269 33.5635 18.6289 32.8889C10.5191 52.4927 18.1986 72.0603 11.1293 88.389C29.2955 74.8255 44.7894 80.9473 63.6298 61.8889C65.1961 74.8255 59.883 78.1286 55.6297 84.8889C55.6297 84.8889 85.5709 85.2534 90.6298 44.8889L29.6298 0Z" fill="#FFD900" fill-rule="evenodd" transform="translate(215.87 472.111)" />
  </g>
</svg>